<svg width="108" height="110" viewBox="0 0 108 110" fill="none" xmlns="http://www.w3.org/2000/svg">
<g filter="url(#filter0_d_55_212)">
<circle cx="54" cy="44" r="44" fill="#4D337F" fill-opacity="0.5"/>
<circle cx="54" cy="44" r="35" fill="#644696"/>
</g>
<path d="M57.8852 68C56.4337 68 54.9747 68 53.5231 68C53.5231 65.5992 53.5231 63.2061 53.5231 60.7363C52.4101 60.7363 51.3346 60.7363 50.2666 60.7363C50.0109 60.7363 50.0636 60.9511 50.0636 61.1045C50.0636 63.4056 50.0636 65.7066 50.0636 68C48.6121 68 47.153 68 45.7015 68C45.7015 65.5532 45.7015 63.1064 45.7015 60.6059C42.7684 60.6059 39.888 60.6059 37.0301 60.6059C37.0075 60.5292 37 60.4986 37 60.4832C37.2707 58.8495 37.5415 57.2081 37.8047 55.5743C37.8423 55.3289 37.9852 55.3442 38.1507 55.3442C39.0381 55.3442 39.9331 55.3442 40.8206 55.3442C42.0464 55.3365 42.6255 54.7306 42.6255 53.4727C42.6255 47.1064 42.6255 40.7402 42.6255 34.3816C42.6255 33.001 41.7983 32.0959 40.4445 32.0192C39.73 31.9808 39.0156 31.9808 38.3011 31.9732C37.8649 31.9655 37.4362 31.9732 37 31.9732C37 30.3854 37 28.8437 37 27.256C39.9105 27.256 42.7985 27.256 45.7015 27.256C45.7015 24.8015 45.7015 22.4008 45.7015 20C47.153 20 48.6121 20 50.0636 20C50.0636 22.2627 50.0636 24.5254 50.0485 26.7881C50.0485 27.0566 50.1313 27.1409 50.3945 27.1333C51.1466 27.1026 51.8987 27.1026 52.6507 27.0949C52.929 27.0949 53.2148 27.0949 53.5231 27.0949C53.5231 24.6788 53.5231 22.3394 53.5231 20C54.9747 20 56.4337 20 57.8852 20C57.8777 20.1534 57.8702 20.3068 57.8702 20.4602C57.8702 22.5081 57.8702 24.5484 57.8702 26.5964C57.8702 27.302 57.8702 27.2943 58.5771 27.371C60.5099 27.5858 62.4127 27.9386 64.2026 28.79C65.8873 29.5877 67.2034 30.7536 67.8953 32.5638C68.3917 33.8677 68.5121 35.2176 68.4143 36.5906C68.2488 38.9377 67.1809 40.7248 65.1879 41.9214C65.0525 42.0058 64.9171 42.0825 64.7291 42.1898C64.8494 42.2512 64.9021 42.2742 64.9622 42.2972C65.7068 42.581 66.489 42.8034 67.2034 43.1716C68.9407 44.069 70.1892 45.419 70.678 47.3979C71.1744 49.3768 71.0616 51.3557 70.5803 53.3116C70.1591 55.0067 69.3694 56.4947 68.0458 57.6453C66.5491 58.9492 64.7517 59.6395 62.8639 60.023C61.3598 60.3221 59.818 60.4449 58.2838 60.6136C57.9529 60.652 57.8626 60.7593 57.8702 61.0815C57.8927 61.6721 57.8777 62.255 57.8777 62.8456C57.8777 64.5484 57.8777 66.2742 57.8852 68ZM50.1463 55.3442C51.4925 55.3442 52.7711 55.3749 54.0421 55.3365C55.7719 55.2828 57.4941 55.0911 59.1336 54.4775C60.164 54.094 61.1417 53.5801 61.7283 52.5753C62.879 50.6194 62.2773 48.1419 60.3445 46.9837C58.9381 46.14 57.3738 45.7641 55.7568 45.6874C54.0421 45.6107 52.3273 45.6337 50.6126 45.5877C50.2366 45.5801 50.1313 45.6874 50.1313 46.0786C50.1463 49.0163 50.1388 51.954 50.1388 54.8917C50.1463 55.0297 50.1463 55.1678 50.1463 55.3442ZM50.1538 36.7057C50.1538 38.0709 50.1538 39.4439 50.1538 40.8092C50.1538 41.024 50.1614 41.1697 50.4471 41.1774C52.6432 41.2157 54.8318 41.2081 56.9752 40.6251C58.0883 40.3183 59.0584 39.7661 59.7353 38.8226C60.7656 37.3806 60.4197 34.9952 59.0584 33.837C57.9529 32.9012 56.6067 32.5407 55.2304 32.4257C53.6585 32.2953 52.0792 32.3337 50.4998 32.28C50.1914 32.2723 50.1538 32.418 50.1538 32.6788C50.1538 34.0211 50.1463 35.3634 50.1538 36.7057Z" fill="white"/>
<defs>
<filter id="filter0_d_55_212" x="0" y="0" width="108" height="110" filterUnits="userSpaceOnUse" color-interpolation-filters="sRGB">
<feFlood flood-opacity="0" result="BackgroundImageFix"/>
<feColorMatrix in="SourceAlpha" type="matrix" values="0 0 0 0 0 0 0 0 0 0 0 0 0 0 0 0 0 0 127 0" result="hardAlpha"/>
<feOffset dy="12"/>
<feGaussianBlur stdDeviation="5"/>
<feColorMatrix type="matrix" values="0 0 0 0 0.0973605 0 0 0 0 0.0434774 0 0 0 0 0.165939 0 0 0 0.25 0"/>
<feBlend mode="normal" in2="BackgroundImageFix" result="effect1_dropShadow_55_212"/>
<feBlend mode="normal" in="SourceGraphic" in2="effect1_dropShadow_55_212" result="shape"/>
</filter>
</defs>
</svg>
