<svg width="67" height="67" viewBox="0 0 67 67" fill="none" xmlns="http://www.w3.org/2000/svg">
<g filter="url(#filter0_d_62_32)">
<circle cx="33.5" cy="29.5" r="28.5" stroke="#1190F2" stroke-width="2"/>
</g>
<path d="M36.1282 45C35.1463 45 34.1593 45 33.1774 45C33.1774 43.4495 33.1774 41.904 33.1774 40.3089C32.4245 40.3089 31.6969 40.3089 30.9745 40.3089C30.8015 40.3089 30.8371 40.4476 30.8371 40.5467C30.8371 42.0328 30.8371 43.5189 30.8371 45C29.8552 45 28.8682 45 27.8863 45C27.8863 43.4198 27.8863 41.8396 27.8863 40.2247C25.9022 40.2247 23.9536 40.2247 22.0204 40.2247C22.0051 40.1751 22 40.1553 22 40.1454C22.1832 39.0903 22.3663 38.0302 22.5444 36.9751C22.5698 36.8166 22.6665 36.8265 22.7784 36.8265C23.3787 36.8265 23.9842 36.8265 24.5845 36.8265C25.4138 36.8215 25.8055 36.4302 25.8055 35.6178C25.8055 31.5062 25.8055 27.3947 25.8055 23.2881C25.8055 22.3965 25.2459 21.8119 24.3301 21.7624C23.8468 21.7376 23.3635 21.7376 22.8802 21.7327C22.5851 21.7277 22.2951 21.7327 22 21.7327C22 20.7073 22 19.7116 22 18.6862C23.9689 18.6862 25.9225 18.6862 27.8863 18.6862C27.8863 17.101 27.8863 15.5505 27.8863 14C28.8682 14 29.8552 14 30.8371 14C30.8371 15.4613 30.8371 16.9227 30.827 18.384C30.827 18.5574 30.8829 18.6119 31.061 18.6069C31.5697 18.5871 32.0785 18.5871 32.5873 18.5821C32.7755 18.5821 32.9688 18.5821 33.1774 18.5821C33.1774 17.0217 33.1774 15.5109 33.1774 14C34.1593 14 35.1463 14 36.1282 14C36.1231 14.0991 36.118 14.1981 36.118 14.2972C36.118 15.6198 36.118 16.9375 36.118 18.2601C36.118 18.7159 36.118 18.7109 36.5963 18.7605C37.9038 18.8992 39.1909 19.127 40.4018 19.6769C41.5414 20.1921 42.4317 20.945 42.8998 22.1141C43.2356 22.9562 43.317 23.8281 43.2508 24.7148C43.1389 26.2306 42.4165 27.3848 41.0683 28.1576C40.9767 28.212 40.8851 28.2616 40.7579 28.3309C40.8393 28.3706 40.8749 28.3854 40.9156 28.4003C41.4193 28.5836 41.9484 28.7272 42.4317 28.965C43.607 29.5446 44.4515 30.4164 44.7822 31.6945C45.118 32.9725 45.0417 34.2506 44.7161 35.5137C44.4312 36.6085 43.897 37.5695 43.0015 38.3126C41.9891 39.1547 40.7732 39.6005 39.4962 39.8482C38.4787 40.0414 37.4357 40.1206 36.3979 40.2296C36.174 40.2544 36.113 40.3237 36.118 40.5318C36.1333 40.9132 36.1231 41.2897 36.1231 41.6711C36.1231 42.7709 36.1231 43.8854 36.1282 45ZM30.8931 36.8265C31.8038 36.8265 32.6687 36.8463 33.5285 36.8215C34.6986 36.7868 35.8637 36.663 36.9728 36.2667C37.6698 36.019 38.3311 35.6871 38.728 35.0382C39.5064 33.775 39.0994 32.175 37.7919 31.427C36.8405 30.8821 35.7823 30.6393 34.6884 30.5898C33.5285 30.5403 32.3685 30.5551 31.2085 30.5254C30.9541 30.5205 30.8829 30.5898 30.8829 30.8424C30.8931 32.7397 30.888 34.6369 30.888 36.5342C30.8931 36.6234 30.8931 36.7125 30.8931 36.8265ZM30.8982 24.7891C30.8982 25.6708 30.8982 26.5575 30.8982 27.4393C30.8982 27.578 30.9033 27.6721 31.0966 27.6771C32.5822 27.7018 34.0627 27.6969 35.5126 27.3204C36.2656 27.1222 36.9219 26.7656 37.3798 26.1563C38.0768 25.225 37.8427 23.6844 36.9219 22.9364C36.174 22.3321 35.2633 22.0992 34.3323 22.0249C33.269 21.9407 32.2006 21.9655 31.1322 21.9308C30.9236 21.9259 30.8982 22.02 30.8982 22.1884C30.8982 23.0553 30.8931 23.9222 30.8982 24.7891Z" fill="white"/>
<defs>
<filter id="filter0_d_62_32" x="0" y="0" width="67" height="67" filterUnits="userSpaceOnUse" color-interpolation-filters="sRGB">
<feFlood flood-opacity="0" result="BackgroundImageFix"/>
<feColorMatrix in="SourceAlpha" type="matrix" values="0 0 0 0 0 0 0 0 0 0 0 0 0 0 0 0 0 0 127 0" result="hardAlpha"/>
<feOffset dy="4"/>
<feGaussianBlur stdDeviation="2"/>
<feColorMatrix type="matrix" values="0 0 0 0 0 0 0 0 0 0 0 0 0 0 0 0 0 0 0.15 0"/>
<feBlend mode="normal" in2="BackgroundImageFix" result="effect1_dropShadow_62_32"/>
<feBlend mode="normal" in="SourceGraphic" in2="effect1_dropShadow_62_32" result="shape"/>
</filter>
</defs>
</svg>
