<svg width="67" height="67" viewBox="0 0 67 67" fill="none" xmlns="http://www.w3.org/2000/svg">
<path d="M16.0114 29.9886C16.0114 26.7361 16.0229 23.4952 16 20.2427C16 19.643 16.2059 19.297 16.7092 19.0086C22.2803 15.7446 27.8398 12.4691 33.388 9.18197C33.8799 8.89363 34.2574 8.97437 34.7035 9.23964C39.9542 12.3537 45.2278 15.4447 50.4785 18.5588C52.1144 19.5276 51.9886 19.0317 51.9886 21.2346C51.9886 27.382 51.9771 33.5294 52 39.6884C52 40.3458 51.7941 40.738 51.2221 41.0724C45.7312 44.2788 40.2631 47.5082 34.795 50.7491C34.2231 51.0836 33.7884 51.0836 33.2278 50.7491C27.7598 47.5082 22.2803 44.2903 16.8008 41.084C16.2288 40.7495 16.0114 40.3574 16.0229 39.6999C16.0229 36.4475 16.0114 33.218 16.0114 29.9886ZM46.795 30.7614C46.8065 30.9805 46.8522 31.142 46.8179 31.2804C46.5205 32.4684 46.3031 33.6909 45.8684 34.8327C44.8503 37.5201 42.9056 39.4577 40.5262 40.9571C37.266 43.0101 33.9714 45.0169 30.6883 47.0469C30.5052 47.1622 30.3337 47.2891 30.1163 47.439C30.2536 47.5659 30.3108 47.6351 30.3908 47.6812C31.2488 48.2233 32.1068 48.7538 32.9647 49.2844C33.7312 49.7573 34.4862 49.6535 35.2183 49.1806C35.9733 48.6962 36.7397 48.2348 37.4948 47.7504C37.6206 47.6697 37.7235 47.5774 37.9066 47.4505C36.9342 46.8277 36.0191 46.228 35.0238 45.5821C36.4652 44.7517 37.7922 43.9558 39.142 43.2177C39.3136 43.1254 39.6683 43.2177 39.8627 43.3446C40.5148 43.7713 41.1439 44.2442 41.7731 44.7171C42.0477 44.9247 42.265 44.9708 42.5853 44.7863C45.0906 43.2869 47.6072 41.7991 50.1354 40.3343C50.6044 40.0575 50.7989 39.6999 50.7874 39.1694C50.7645 37.8776 50.7874 36.5974 50.776 35.3056C50.776 30.5422 50.776 25.7673 50.776 21.0039C50.776 20.5426 50.7302 20.1274 50.2841 19.8621C47.7216 18.3512 45.1592 16.8172 42.5853 15.3294C42.368 15.2025 41.9333 15.2256 41.7159 15.3525C38.3985 17.4054 35.1153 19.4815 31.8093 21.546C30.0934 22.6186 28.4118 23.7605 27.0734 25.3175C24.7512 28.0048 24.6368 31.5226 26.776 34.3599C27.6683 35.5363 28.7893 36.459 29.9905 37.2779C30.9514 37.9238 31.9237 38.5581 32.9647 39.2501C31.6492 40.0229 30.3908 40.738 29.1554 41.4876C28.755 41.7299 28.4118 41.7529 28.0686 41.4415C26.8332 40.392 25.4833 39.4462 24.3851 38.2582C21.2965 34.9365 20.45 30.9574 21.6282 26.6093C22.5434 23.2184 24.7512 20.7617 27.6454 18.9163C30.6883 16.9787 33.7769 15.1103 36.8427 13.2187C37.1516 13.0342 37.449 12.8381 37.8151 12.5959C37.6091 12.4345 37.4719 12.3076 37.3117 12.2153C36.408 11.6848 35.4929 11.1773 34.6006 10.6237C34.1888 10.3699 33.8341 10.3699 33.4223 10.6121C32.4271 11.2119 31.4204 11.8001 30.4137 12.3883C30.3337 12.4345 30.2307 12.4575 30.0591 12.5152C31.123 13.2072 32.0153 13.7839 32.9762 14.4067C31.5577 15.2487 30.2421 16.056 28.8923 16.8057C28.7207 16.898 28.3661 16.8172 28.1716 16.6904C27.5767 16.3097 27.0048 15.883 26.4557 15.4447C26.0782 15.1333 25.7464 15.0987 25.3117 15.3525C22.795 16.8403 20.2784 18.3166 17.7617 19.7929C17.3727 20.0236 17.2011 20.3119 17.2011 20.7733C17.2126 26.9437 17.2126 33.1142 17.2011 39.2847C17.2011 39.7691 17.3842 40.069 17.7846 40.3112C20.2898 41.776 22.7836 43.2523 25.2774 44.7286C25.6549 44.9593 25.9752 44.9247 26.3298 44.6825C27.0848 44.1634 27.8627 43.6675 28.6292 43.1716C32.0038 41.0148 35.3899 38.858 38.7645 36.6897C39.2221 36.3898 39.6225 36.0092 40.0572 35.6516C40.0229 35.5824 39.9886 35.5248 39.9657 35.4556C37.0715 35.4556 34.1773 35.4556 31.1916 35.4556C31.9924 34.0485 32.7588 32.7682 33.4681 31.4534C33.7426 30.9459 34.0744 30.7614 34.6463 30.7729C38.4557 30.796 42.2765 30.7844 46.0858 30.7844C46.3146 30.7614 46.5434 30.7614 46.795 30.7614Z" fill="white"/>
<path d="M46.6586 28.2581C45.3889 28.2581 44.1534 28.2812 42.9294 28.235C42.7578 28.235 42.4947 27.9813 42.426 27.7852C41.7625 26.0091 40.5957 24.6481 39.0971 23.5639C37.793 22.6066 36.4317 21.7186 35.0361 20.7497C35.3908 20.5306 35.7111 20.323 36.0428 20.1269C36.958 19.5848 37.8731 19.0197 38.8112 18.5237C39.0743 18.3853 39.5318 18.3277 39.7492 18.4661C42.06 19.977 44.0847 21.7878 45.4346 24.2559C46.1667 25.5592 46.6358 27.0702 46.6586 28.2581Z" fill="white"/>
<g filter="url(#filter0_d_62_31)">
<circle cx="33.5" cy="29.5" r="28.5" stroke="#1190F2" stroke-width="2"/>
</g>
<defs>
<filter id="filter0_d_62_31" x="0" y="0" width="67" height="67" filterUnits="userSpaceOnUse" color-interpolation-filters="sRGB">
<feFlood flood-opacity="0" result="BackgroundImageFix"/>
<feColorMatrix in="SourceAlpha" type="matrix" values="0 0 0 0 0 0 0 0 0 0 0 0 0 0 0 0 0 0 127 0" result="hardAlpha"/>
<feOffset dy="4"/>
<feGaussianBlur stdDeviation="2"/>
<feColorMatrix type="matrix" values="0 0 0 0 0 0 0 0 0 0 0 0 0 0 0 0 0 0 0.15 0"/>
<feBlend mode="normal" in2="BackgroundImageFix" result="effect1_dropShadow_62_31"/>
<feBlend mode="normal" in="SourceGraphic" in2="effect1_dropShadow_62_31" result="shape"/>
</filter>
</defs>
</svg>
