<svg width="40" height="34" viewBox="0 0 40 34" fill="none" xmlns="http://www.w3.org/2000/svg">
<path d="M35.3335 10.666H16.6668C15.3835 10.666 14.3335 11.716 14.3335 12.9993V26.9993C14.3335 28.2827 15.3835 29.3327 16.6668 29.3327H35.3335C36.6168 29.3327 37.6668 28.2827 37.6668 26.9993V12.9993C37.6668 11.716 36.6168 10.666 35.3335 10.666ZM35.3335 26.9993H16.6668V15.3327L26.0002 21.166L35.3335 15.3327V26.9993ZM26.0002 18.8327L16.6668 12.9993H35.3335L26.0002 18.8327Z" fill="#54669C"/>
<g filter="url(#filter0_d_62_18)">
<circle cx="12" cy="10" r="8" fill="#0097E8"/>
<path d="M12.5703 14H11.1934V8.46875C11.1934 7.80859 11.209 7.28516 11.2402 6.89844C11.1504 6.99219 11.0391 7.0957 10.9062 7.20898C10.7773 7.32227 10.3398 7.68164 9.59375 8.28711L8.90234 7.41406L11.4219 5.43359H12.5703V14Z" fill="white"/>
</g>
<defs>
<filter id="filter0_d_62_18" x="0" y="0" width="24" height="24" filterUnits="userSpaceOnUse" color-interpolation-filters="sRGB">
<feFlood flood-opacity="0" result="BackgroundImageFix"/>
<feColorMatrix in="SourceAlpha" type="matrix" values="0 0 0 0 0 0 0 0 0 0 0 0 0 0 0 0 0 0 127 0" result="hardAlpha"/>
<feOffset dy="2"/>
<feGaussianBlur stdDeviation="2"/>
<feColorMatrix type="matrix" values="0 0 0 0 0.333333 0 0 0 0 0.137255 0 0 0 0 0.866667 0 0 0 0.4 0"/>
<feBlend mode="normal" in2="BackgroundImageFix" result="effect1_dropShadow_62_18"/>
<feBlend mode="normal" in="SourceGraphic" in2="effect1_dropShadow_62_18" result="shape"/>
</filter>
</defs>
</svg>
