<svg width="64" height="68" viewBox="0 0 64 68" fill="none" xmlns="http://www.w3.org/2000/svg">
<g filter="url(#filter0_d_62_6)">
<path d="M40.1765 34.6V35.0167L40.4723 35.3101L42.9832 37.8H21.0168L23.5277 35.3101L23.8235 35.0167V34.6V26.9C23.8235 23.1087 26.524 19.8648 30.103 19.0554L30.8824 18.8791V18.08V17.1C30.8824 16.4702 31.3444 16 32 16C32.6556 16 33.1176 16.4702 33.1176 17.1V18.08V18.8791L33.897 19.0554C37.476 19.8648 40.1765 23.1087 40.1765 26.9V34.6ZM33.5126 41.2C33.1852 41.6796 32.6304 42 32 42C31.3696 42 30.8148 41.6796 30.4874 41.2H33.5126Z" stroke="#54669C" stroke-width="2"/>
</g>
<g filter="url(#filter1_d_62_6)">
<circle cx="22" cy="18" r="8" fill="#0097E8"/>
<path d="M21.4219 13.3223C22.2344 13.3223 22.877 13.5098 23.3496 13.8848C23.8223 14.2559 24.0586 14.7539 24.0586 15.3789C24.0586 16.2578 23.5312 16.957 22.4766 17.4766C23.1484 17.8125 23.625 18.166 23.9062 18.5371C24.1914 18.9082 24.334 19.3223 24.334 19.7793C24.334 20.4863 24.0742 21.0527 23.5547 21.4785C23.0352 21.9043 22.332 22.1172 21.4453 22.1172C20.5156 22.1172 19.7949 21.918 19.2832 21.5195C18.7715 21.1211 18.5156 20.5566 18.5156 19.8262C18.5156 19.3496 18.6484 18.9219 18.9141 18.543C19.1836 18.1602 19.623 17.8203 20.2324 17.5234C19.709 17.2109 19.3359 16.8809 19.1133 16.5332C18.8906 16.1855 18.7793 15.7949 18.7793 15.3613C18.7793 14.7402 19.0234 14.2461 19.5117 13.8789C20 13.5078 20.6367 13.3223 21.4219 13.3223ZM19.834 19.7793C19.834 20.1855 19.9766 20.502 20.2617 20.7285C20.5469 20.9512 20.9336 21.0625 21.4219 21.0625C21.9258 21.0625 22.3164 20.9473 22.5938 20.7168C22.875 20.4824 23.0156 20.166 23.0156 19.7676C23.0156 19.4512 22.8867 19.1621 22.6289 18.9004C22.3711 18.6387 21.9805 18.3965 21.457 18.1738L21.2871 18.0977C20.7715 18.3242 20.4004 18.5742 20.1738 18.8477C19.9473 19.1172 19.834 19.4277 19.834 19.7793ZM21.4102 14.3828C21.0195 14.3828 20.7051 14.4805 20.4668 14.6758C20.2285 14.8672 20.1094 15.1289 20.1094 15.4609C20.1094 15.6641 20.1523 15.8457 20.2383 16.0059C20.3242 16.166 20.4492 16.3125 20.6133 16.4453C20.7773 16.5742 21.0547 16.7305 21.4453 16.9141C21.9141 16.707 22.2441 16.4902 22.4355 16.2637C22.6309 16.0332 22.7285 15.7656 22.7285 15.4609C22.7285 15.1289 22.6074 14.8672 22.3652 14.6758C22.127 14.4805 21.8086 14.3828 21.4102 14.3828Z" fill="white"/>
</g>
<defs>
<filter id="filter0_d_62_6" x="0" y="0" width="64" height="68" filterUnits="userSpaceOnUse" color-interpolation-filters="sRGB">
<feFlood flood-opacity="0" result="BackgroundImageFix"/>
<feColorMatrix in="SourceAlpha" type="matrix" values="0 0 0 0 0 0 0 0 0 0 0 0 0 0 0 0 0 0 127 0" result="hardAlpha"/>
<feOffset dy="5"/>
<feGaussianBlur stdDeviation="10"/>
<feColorMatrix type="matrix" values="0 0 0 0 0 0 0 0 0 0.592157 0 0 0 0 0.909804 0 0 0 0.4 0"/>
<feBlend mode="normal" in2="BackgroundImageFix" result="effect1_dropShadow_62_6"/>
<feBlend mode="normal" in="SourceGraphic" in2="effect1_dropShadow_62_6" result="shape"/>
</filter>
<filter id="filter1_d_62_6" x="10" y="8" width="24" height="24" filterUnits="userSpaceOnUse" color-interpolation-filters="sRGB">
<feFlood flood-opacity="0" result="BackgroundImageFix"/>
<feColorMatrix in="SourceAlpha" type="matrix" values="0 0 0 0 0 0 0 0 0 0 0 0 0 0 0 0 0 0 127 0" result="hardAlpha"/>
<feOffset dy="2"/>
<feGaussianBlur stdDeviation="2"/>
<feColorMatrix type="matrix" values="0 0 0 0 0.333333 0 0 0 0 0.137255 0 0 0 0 0.866667 0 0 0 0.4 0"/>
<feBlend mode="normal" in2="BackgroundImageFix" result="effect1_dropShadow_62_6"/>
<feBlend mode="normal" in="SourceGraphic" in2="effect1_dropShadow_62_6" result="shape"/>
</filter>
</defs>
</svg>
