<svg width="18" height="18" viewBox="0 0 18 18" fill="none" xmlns="http://www.w3.org/2000/svg">
<path d="M12.501 11H11.701L11.401 10.75C12.401 9.6 12.951 8.15 12.951 6.5C12.951 2.9 10.051 0 6.45097 0C2.85097 0 0.000976562 2.9 0.000976562 6.5C0.000976562 10.1 2.90097 13 6.50097 13C8.10097 13 9.60097 12.4 10.701 11.45L11.001 11.7V12.5L16.001 17.5L17.501 16L12.501 11ZM6.50097 11C4.00097 11 2.00097 9 2.00097 6.5C2.00097 4 4.00097 2 6.50097 2C9.00097 2 11.001 4 11.001 6.5C11.001 9 9.00097 11 6.50097 11Z" fill="white"/>
</svg>
