<svg width="122" height="43" viewBox="0 0 122 43" fill="none" xmlns="http://www.w3.org/2000/svg">
<g filter="url(#filter0_d_62_3)">
<path d="M17.104 7.96L21.112 20.056L25.072 7.96H29.224L22.768 25H19.456L12.928 7.96H17.104ZM35.1827 7.96H38.7348L44.9508 25H40.9187L39.5988 21.184H34.2947L32.9987 25H28.9667L35.1827 7.96ZM38.9508 18.472L36.9588 12.448L34.9187 18.472H38.9508ZM47.8289 25V7.96H51.7649V21.544H60.0209V25H47.8289ZM69.3332 21.64C70.0052 21.64 70.5732 21.504 71.0372 21.232C71.5012 20.944 71.8772 20.568 72.1652 20.104C72.4532 19.64 72.6532 19.112 72.7652 18.52C72.8932 17.912 72.9572 17.296 72.9572 16.672V7.96H76.8932V16.672C76.8932 17.856 76.7412 18.96 76.4372 19.984C76.1492 21.008 75.6932 21.904 75.0692 22.672C74.4612 23.44 73.6772 24.048 72.7172 24.496C71.7732 24.928 70.6452 25.144 69.3332 25.144C67.9732 25.144 66.8132 24.912 65.8532 24.448C64.8932 23.984 64.1092 23.368 63.5012 22.6C62.9092 21.816 62.4692 20.912 62.1812 19.888C61.9092 18.864 61.7732 17.792 61.7732 16.672V7.96H65.7092V16.672C65.7092 17.328 65.7732 17.952 65.9012 18.544C66.0292 19.136 66.2372 19.664 66.5252 20.128C66.8132 20.592 67.1812 20.96 67.6292 21.232C68.0932 21.504 68.6612 21.64 69.3332 21.64ZM93.1189 21.544V25H81.1429V7.96H92.9029V11.416H85.0789V14.728H91.7989V17.92H85.0789V21.544H93.1189ZM109.694 11.416H104.51V25H100.574V11.416H95.3661V7.96H109.694V11.416Z" fill="url(#paint0_linear_62_3)"/>
</g>
<defs>
<filter id="filter0_d_62_3" x="0.928223" y="0.959961" width="120.766" height="41.1836" filterUnits="userSpaceOnUse" color-interpolation-filters="sRGB">
<feFlood flood-opacity="0" result="BackgroundImageFix"/>
<feColorMatrix in="SourceAlpha" type="matrix" values="0 0 0 0 0 0 0 0 0 0 0 0 0 0 0 0 0 0 127 0" result="hardAlpha"/>
<feOffset dy="5"/>
<feGaussianBlur stdDeviation="6"/>
<feColorMatrix type="matrix" values="0 0 0 0 0.0240902 0 0 0 0 0.0207471 0 0 0 0 0.0742358 0 0 0 0.25 0"/>
<feBlend mode="normal" in2="BackgroundImageFix" result="effect1_dropShadow_62_3"/>
<feBlend mode="normal" in="SourceGraphic" in2="effect1_dropShadow_62_3" result="shape"/>
</filter>
<linearGradient id="paint0_linear_62_3" x1="108.644" y1="22.1294" x2="12.9601" y2="11.3966" gradientUnits="userSpaceOnUse">
<stop stop-color="#3887FE"/>
<stop offset="0.497238" stop-color="#3BA0FF"/>
<stop offset="1" stop-color="#5FB2FF"/>
</linearGradient>
</defs>
</svg>
